<svg xmlns="http://www.w3.org/2000/svg" width="640" height="360" viewBox="0 0 640 360">
  <rect width="640" height="360" rx="12" fill="#1a1a2e" stroke="#4a4a6a" stroke-width="2"/>
  <rect x="40" y="40" width="560" height="60" rx="8" fill="#16213e"/>
  <text x="60" y="78" fill="#e0e0e0" font-family="system-ui, sans-serif" font-size="20" font-weight="600">StellarRoute</text>
  <rect x="40" y="120" width="200" height="180" rx="10" fill="#0f3460" stroke="#e94560" stroke-width="2" stroke-dasharray="8 4"/>
  <text x="140" y="215" fill="#e94560" font-family="system-ui, sans-serif" font-size="16" font-weight="700" text-anchor="middle">Screenshot</text>
  <text x="140" y="240" fill="#888" font-family="system-ui, sans-serif" font-size="12" text-anchor="middle">Placeholder</text>
  <rect x="280" y="120" width="320" height="40" rx="6" fill="#16213e"/>
  <text x="296" y="146" fill="#e0e0e0" font-family="system-ui, sans-serif" font-size="14" font-weight="600">Swap Card</text>
  <rect x="280" y="170" width="320" height="36" rx="6" fill="#0f3460"/>
  <text x="296" y="194" fill="#4ecca3" font-family="system-ui, sans-serif" font-size="13">Pay: 10 XLM</text>
  <text x="470" y="194" fill="#6a6a8a" font-family="system-ui, sans-serif" font-size="16">↕</text>
  <rect x="280" y="215" width="320" height="36" rx="6" fill="#0f3460"/>
  <text x="296" y="239" fill="#e94560" font-family="system-ui, sans-serif" font-size="13">Receive: ~1.05 USDC</text>
  <rect x="280" y="265" width="150" height="36" rx="6" fill="#16213e"/>
  <text x="355" y="289" fill="#aaa" font-family="system-ui, sans-serif" font-size="12" text-anchor="middle">Best route: SDEX</text>
  <rect x="440" y="265" width="160" height="36" rx="6" fill="#16213e"/>
  <text x="520" y="289" fill="#aaa" font-family="system-ui, sans-serif" font-size="12" text-anchor="middle">Slippage: 0.5%</text>
  <text x="320" y="45" fill="#6a6a8a" font-family="system-ui, sans-serif" font-size="11" text-anchor="middle">STEP 4 — Pick a pair and enter a small amount</text>
</svg>
